<svg xmlns="http://www.w3.org/2000/svg" viewBox="0 0 594.02 530.17"><defs><style>.cls-1{fill:#333;}</style></defs><g id="Layer_2" data-name="Layer 2"><g id="Layer_1-2" data-name="Layer 1"><path class="cls-1" d="M255,0q47.55,0,78.16,14.05a268.1,268.1,0,0,1,54.38,32.77q14.4,10.82,22,2.52T420,10.08h16.77q-1.46,28.05-2.16,68t-.72,106.05H417q-3.6-33.09-9.35-56.49A165.51,165.51,0,0,0,391.8,86.22q-10.08-18-28.78-32.39a113.1,113.1,0,0,0-41.74-26.62,144.07,144.07,0,0,0-49.65-8.64q-38.87,0-66.21,20.51T161.16,94.85q-16.9,35.27-24.82,79.52a519,519,0,0,0-7.92,91.75,502,502,0,0,0,8.28,92.47q8.27,44.27,25.9,78.8t45.7,54.69q28.06,20.16,66.21,20.16a136.11,136.11,0,0,0,47.85-9A113.9,113.9,0,0,0,363.74,477q28.06-21.59,38.14-53.61T417,338.08h16.86q0,68.63.72,110.87t2.17,71.13H420q-2.9-31-9.73-38.89t-22.69,2.16A376.69,376.69,0,0,1,331,516.12q-29.91,14.05-76.72,14-76.36,0-133.62-31t-89-89.33Q0,351.54,0,269.41q0-80.67,32.78-141.19t90-94.36Q180.09,0,255,0Z"/><path class="cls-1" d="M546.23,443.52q21.93,0,34.86,11.53T594,486.81q0,20.24-12.93,31.77T546.23,530.1q-21.91,0-34.85-11.52t-12.93-31.77q0-20.24,12.93-31.76T546.23,443.52Z"/></g></g></svg>